<svg enable-background="new 0 0 56 56" height="56" viewBox="0 0 56 56" width="56" xmlns="http://www.w3.org/2000/svg"><path d="m36.68 14.45c.454 1.033.75 2.749.309 4.006 1.8 1.535 2.418 5.269 1.55 8.319 2.563.196 5.616-.094 7.588.693-1.843-.237-4.358-.702-6.735-.54-.451.03-1.117-.018-1.084.616 2.75.216 5.484.451 7.742 1.156-2.238-.366-4.959-.923-7.742-1.001-1.149 2.27-3.465 3.385-6.66 3.619.345.746 1.002 1.031 1.162 2.233.24 1.796-.375 4.427.23 5.623.291.573.766.589 1.086 1.079-.783.926-2.723-.104-2.943-1.079-.379-1.671.576-4.26-.465-5.393.074 1.821-.431 4.381.078 6.008.2.642.778.888.619 1.465-3.637.369-2.117-4.707-2.711-7.703-.549.038-.309.821-.309 1.155-.017 2.926.598 6.939-2.557 6.548-.092-.614.424-.823.619-1.386.576-1.646-.107-4.1.157-6.087-1.204.907.126 4.075-.62 5.7-.43.935-1.814 1.342-2.865.924.137-.695.856-.583 1.161-1.231.427-.903.003-2.207.155-3.544-2.229.445-3.957-.064-4.801-1.464-.379-.628-.473-1.368-.93-1.925-.455-.557-1.183-.633-1.395-1.387 2.76-.664 2.865 2.84 5.344 2.927.76.026 1.154-.22 1.858-.386.196-.883.618-1.541 1.239-2.004-3.084-.422-5.631-1.381-6.814-3.694-2.803.138-5.369.512-7.744 1.077 2.156-.783 4.816-1.063 7.666-1.155-.168-1.01-1.641-.732-2.555-.693-1.699.075-3.838.286-5.188.54 1.958-.698 4.704-.611 7.356-.616-.811-2.544-.529-6.584 1.24-8.089-.502-1.263-.346-3.33.309-4.313 1.975.088 3.174.949 4.414 1.771 1.539-.438 3.156-.655 5.266-.539.887.049 1.809.447 2.477.385.656-.062 1.379-.797 2.015-1.078.827-.363 1.528-.503 2.478-.537z" fill="#fff"/></svg>