<?xml version="1.0" encoding="utf-8"?>
<!-- Generator: Adobe Illustrator 19.1.0, SVG Export Plug-In . SVG Version: 6.00 Build 0)  -->
<svg version="1.1" id="Layer_1" xmlns="http://www.w3.org/2000/svg" xmlns:xlink="http://www.w3.org/1999/xlink" x="0px" y="0px"
	 viewBox="0 0 200 200" style="enable-background:new 0 0 200 200;" xml:space="preserve">
<style type="text/css">
	.st0{fill:#FFFFFF;}
</style>
<path class="st0" d="M103.2,158.1c-11.9,0-23.8,0-35.8,0c-0.3,0-0.6,0-0.8-0.1c-1.5-0.4-2.9-0.8-4.3-1.4c-1.9-0.8-3.6-1.9-5.1-3.3
	c-1.5-1.4-3-2.9-4.2-4.5c-1.4-1.8-2.3-3.9-3-6.1c-0.2-0.5-0.3-1.1-0.5-1.6c-0.1-0.2-0.1-0.3-0.1-0.5c-0.1-7.1,0-14.3-0.1-21.4
	c0-6.3,0-12.5-0.1-18.8c0-3.9,0-7.9,0-11.8c0-0.4,0-0.4,0.4-0.4c8.8,0,17.7,0,26.5,0c1.3,0,2.6,0,3.9,0.1c0.3,0,0.5,0.1,0.8,0.1
	c0.4,0.1,0.4,0.2,0.3,0.5c-0.3,0.6-0.6,1.1-0.9,1.7c-1.8,3-3.1,6.2-3.6,9.7c-0.1,0.8-0.1,1.6-0.2,2.5c0,1.4,0,2.8,0,4.1
	c0.1,2.7,0.8,5.3,2,7.7c0.8,1.8,1.7,3.5,2.8,5.2c1.6,2.3,3.5,4.4,5.8,6.1c3.1,2.3,6.5,3.9,10.3,4.8c1.6,0.4,3.2,0.6,4.8,0.7
	c2.7,0.2,5.3-0.2,7.8-0.9c3-0.8,5.7-2,8.3-3.7c2.8-1.9,5.1-4.2,7-6.9c2.1-3.1,3.6-6.4,4.4-10.1c0.3-1.3,0.4-2.6,0.5-3.9
	c0.2-3.4-0.3-6.7-1.3-9.9c-0.7-2-1.6-3.9-2.8-5.8c-0.3-0.5-0.6-0.9-0.8-1.4c-0.1-0.3-0.1-0.4,0.3-0.5c0.9-0.1,1.7-0.1,2.6-0.2
	c6.4-0.1,12.8,0,19.2-0.1c3.2,0,6.5,0,9.7,0c0.4,0,0.4,0,0.4,0.4c0,2.6,0,5.3,0,7.9c-0.1,6.1,0,12.2-0.1,18.3
	c-0.1,6.3,0,12.5-0.1,18.8c0,2.3,0,4.5,0,6.8c0,0.1,0,0.2,0,0.4c-0.7,2.4-1.5,4.6-2.7,6.8c-1.1,1.9-2.5,3.6-4.1,5.1
	c-1.7,1.5-3.5,2.8-5.5,3.8c-1.5,0.7-3,1.1-4.6,1.6c-0.5,0.2-1.1,0.2-1.6,0.2C126.8,158.1,115,158.1,103.2,158.1z"/>
<path class="st0" d="M140,85.6c-5.6,0-11.2,0-16.9,0c-0.4,0-0.7-0.1-0.9-0.4c-1.5-1.3-3.1-2.6-4.8-3.6c-2.9-1.7-5.9-3-9.2-3.6
	c-1.1-0.2-2.2-0.3-3.4-0.4c-1.3-0.1-2.5-0.1-3.8,0c-2.1,0.1-4.2,0.6-6.2,1.3c-3.7,1.3-7,3.3-10,5.9c0,0-0.1,0.1-0.1,0.1
	c-0.2,0.4-0.6,0.4-1.1,0.4c-1.5,0-3,0-4.5,0.1c-2.8,0.1-5.7,0-8.5,0.1c-7,0.1-14,0-21,0c-0.1,0-0.1,0-0.2,0c-0.3,0-0.3-0.1-0.3-0.4
	c0-0.2,0-0.4,0-0.6c0-2.3,0-4.6,0.1-7c0-1.3,0-2.5,0-3.8c0-1.5,0-3,0.1-4.4c0.1-1.4,0.2-2.8,0.6-4.2c0.3-0.9,0.7-1.8,1.1-2.6
	c0.6-1.3,1.2-2.7,2.1-3.8c0.5-0.8,1.2-1.4,1.8-2.1c0.9-0.9,1.8-1.8,2.8-2.6c0.1-0.1,0.3-0.2,0.4-0.3c0.3-0.2,0.5-0.2,0.6,0.2
	c0.1,0.5,0.1,1.1,0.1,1.6c0.1,5.1,0,10.1,0.1,15.2c0,1.4,0,2.8,0.1,4.1c0,0.3,0.1,0.5,0.1,0.8c0,0.3,0.2,0.4,0.4,0.4
	c0.3,0,0.5,0.1,0.8,0.1c0.6,0,1.1,0,1.7-0.1c0.2,0,0.3-0.1,0.3-0.4c0-2.8,0-5.5,0.1-8.3c0-1.9,0-3.9,0.1-5.8c0-1.7,0-3.4,0.1-5.1
	c0.1-1.7,0-3.4,0-5.1c0-0.3,0.1-0.4,0.3-0.5c0.7-0.2,1.5-0.5,2.2-0.7c0.6-0.2,0.9,0,1.1,0.6c0.2,0.9,0.2,1.8,0.2,2.8
	c0,3.7,0,7.3,0,11c0,2.8,0,5.6,0.1,8.3c0,0.9,0,1.7,0.2,2.6c0.1,0.4,0.1,0.5,0.5,0.6c0.2,0,0.4,0.1,0.6,0.1c0.5,0,1,0,1.5-0.1
	c0.2,0,0.3-0.1,0.3-0.3c0-1.1,0-2.1,0-3.2c0-2.2,0-4.3,0-6.5c0.1-4.4,0-8.9,0.1-13.3c0-1,0-1.9,0-2.9c0-0.2,0.1-0.3,0.3-0.3
	c1.1,0,2.3,0,3.4,0c0.2,0,0.3,0.1,0.3,0.3c0,0.1,0,0.2,0,0.3c0,6.7,0,13.4,0,20.2c0,1.5,0,3,0.1,4.4c0,0.3,0.1,0.6,0.1,0.9
	c0,0.3,0.2,0.4,0.4,0.5c0.3,0.1,0.5,0.1,0.8,0.1c0.5,0,0.9,0,1.4-0.1c0.2,0,0.4-0.1,0.3-0.4c0,0,0,0,0,0c0-4.6,0-9.2,0.1-13.8
	c0-4,0-8,0-12c0-0.4,0-0.5,0.5-0.4c8.7,0.1,17.4,0,26.1,0.1c7.3,0,14.6,0,22,0.1c4.6,0,9.3,0,13.9,0c0.2,0,0.4,0,0.6,0.1
	c1.4,0.4,2.9,0.9,4.3,1.5c1.9,0.8,3.5,2,5,3.4c1.7,1.5,3.3,3.1,4.6,5c1.5,2.1,2.3,4.5,2.8,7c0.1,0.7,0.1,1.3,0.2,2
	c0,0.5,0,0.9,0.1,1.4c0,1.4,0.1,2.8,0.1,4.1c0,2.1,0,4.2,0.1,6.3c0,1.5,0,3,0,4.5c0,0.4,0,0.4-0.4,0.4
	C151.4,85.6,145.7,85.6,140,85.6z M136.3,59.5C136.3,59.5,136.3,59.5,136.3,59.5c-1.5,0-2.9,0-4.4,0c-0.2,0-0.3,0-0.5,0.1
	c-0.5,0.5-1.1,1-1.6,1.5c-0.1,0.1-0.1,0.2-0.1,0.3c0,0.6,0,1.2,0,1.9c0,1.6,0,3.1,0,4.7c0,1.6,0,3.2,0,4.8c0,0.5,0,1,0.1,1.5
	c0.2,1.1,0.9,2.3,2.2,2.5c0.4,0.1,0.8,0.1,1.2,0.2c1.5,0.2,3,0.1,4.4,0.2c1.7,0,3.4,0,5.2,0c0.6,0,1.2-0.1,1.8-0.2
	c1.5-0.3,2.2-1,2.4-2.5c0.2-1.1,0.2-2.2,0.2-3.3c0-2.4,0-4.7,0-7.1c0-0.4,0-0.9-0.1-1.3c0-0.5-0.1-1-0.4-1.4c-0.5-1-1.2-1.7-2.4-1.8
	c-1.3-0.1-2.5-0.1-3.8-0.1C138.9,59.4,137.6,59.5,136.3,59.5z"/>
<path class="st0" d="M103.4,83c2.1,0,4.4,0.2,6.7,0.9c2.4,0.7,4.6,1.9,6.5,3.5c1.6,1.3,3,2.8,4.3,4.4c1.8,2.2,2.8,4.7,3.5,7.3
	c0.3,1.1,0.4,2.1,0.5,3.2c0.1,1.3,0.1,2.7,0,4c-0.2,2.8-0.9,5.3-2.2,7.8c-2.1,4.1-5.1,7.2-9.1,9.3c-2.3,1.3-4.8,2-7.5,2.4
	c-3.9,0.5-7.7,0-11.3-1.5c-1.6-0.7-3.1-1.6-4.4-2.8c-1.7-1.5-3.4-3.1-4.8-5c-1.7-2.3-2.8-4.8-3.3-7.6c-0.3-1.9-0.5-3.8-0.4-5.8
	c0.2-4.1,1.5-7.7,3.8-11.1c2.1-3,4.8-5.4,8-7c2.2-1.1,4.6-1.8,7-2.1C101.5,83,102.3,83,103.4,83z M103.4,119.6c1.6,0,3-0.2,4.4-0.7
	c2.9-0.9,5.3-2.5,7.2-4.8c1.5-1.7,2.5-3.7,3.1-5.9c0.2-0.9,0.3-1.9,0.4-2.9c0.1-1.3,0-2.6-0.3-3.9c-0.5-2.2-1.5-4.2-2.9-6.1
	c-0.9-1.2-1.9-2.4-3.2-3.1c-1.6-0.9-3.3-1.8-5.1-2.3c-1.7-0.5-3.4-0.8-5.2-0.5c-2.5,0.4-4.9,1.2-6.9,2.6c-4.6,3.3-6.8,7.7-6.6,13.3
	c0.1,1.8,0.6,3.6,1.3,5.3c1.6,3.4,4.1,5.8,7.4,7.4C99.2,119,101.2,119.6,103.4,119.6z"/>
</svg>
