<?xml version="1.0" encoding="utf-8"?>
<!-- Generator: Adobe Illustrator 19.1.0, SVG Export Plug-In . SVG Version: 6.00 Build 0)  -->
<svg version="1.1" id="Layer_1" xmlns="http://www.w3.org/2000/svg" xmlns:xlink="http://www.w3.org/1999/xlink" x="0px" y="0px"
	 viewBox="0 0 200 200" style="enable-background:new 0 0 200 200;" xml:space="preserve">
<style type="text/css">
	.st0{fill:#FFFFFF;}
</style>
<path class="st0" d="M87.7,139.4c0-6.7,0-13.4,0-20.1c0-3.6,0-7.2,0-10.9c0-5.7,0-11.4-0.1-17.1c0-0.5,0.1-0.7,0.7-0.7
	c5.3,0,10.6,0,15.8,0c0.6,0,0.7,0.2,0.7,0.7c0,2.1,0,4.1,0,6.2c0.1,0,0.2,0,0.2,0c1.7-3.2,4.6-5.1,7.9-6.2c4.9-1.7,9.8-1.7,14.6,0.2
	c6.4,2.4,9.7,7.5,11.1,13.9c0.3,1.2,0.4,2.4,0.5,3.6c0,0.2-0.1,0.4,0.2,0.4c0,0.4,0,0.8,0,1.2c-0.3,0.3-0.2,0.7-0.2,1
	c0,8.9,0,17.8,0,26.7c0,0.8-0.2,1-1,1c-5,0-10,0-14.9,0c-0.3,0-0.7-0.1-1,0.2c-0.1,0-0.2,0-0.4,0c0-0.2,0.1-0.4,0.1-0.6
	c0-8.1,0-16.2,0-24.3c0-1.5-0.1-3-0.4-4.5c-0.6-2.6-1.7-4.8-4.2-6.1c-5.7-3-12.6,1.2-12.6,7.7c0,9,0,18,0,27c0,0.3-0.1,0.6,0.1,0.9
	c-0.1,0-0.2,0-0.4,0c-0.3-0.3-0.7-0.2-1-0.2C98.3,139.4,93,139.4,87.7,139.4z"/>
<path class="st0" d="M63.2,139.6c0-16,0-32,0-47.9c0-0.8,0.2-1,1-1c4.4,0,8.8,0,13.2,0c0.9,0,1.1,0.2,1.1,1.1c0,15.7,0,31.4,0,47.1
	c0,0.2,0,0.5,0,0.7C73.4,139.6,68.3,139.6,63.2,139.6z"/>
<path class="st0" d="M122.4,139.6c0.3-0.3,0.7-0.2,1-0.2c5,0,10,0,14.9,0c0.8,0,1-0.2,1-1c0-8.9,0-17.8,0-26.7c0-0.3-0.1-0.7,0.2-1
	c0,9.4,0,18.7,0,28.1c0,0.6-0.1,0.7-0.7,0.7C133.3,139.6,127.9,139.6,122.4,139.6z"/>
<path class="st0" d="M87.7,139.4c5.3,0,10.6,0,15.9,0c0.3,0,0.7-0.1,1,0.2c-5.6,0-11.3,0-16.9,0C87.7,139.5,87.7,139.5,87.7,139.4z"
	/>
<path class="st0" d="M70.3,67.7c4.3,0,7.6,2,8.8,5.4c2.1,5.6-1.6,11.1-7.6,11.5c-2.7,0.2-5.3-0.2-7.5-2.1c-2.7-2.3-3.4-5.3-2.6-8.6
	c0.9-3.4,3.3-5.3,6.6-6C68.9,67.7,69.7,67.6,70.3,67.7z"/>
</svg>
