<svg enable-background="new 0 0 200 200" viewBox="0 0 200 200" xmlns="http://www.w3.org/2000/svg"><g fill="#fff"><path d="m87.7 139.4c0-6.7 0-13.4 0-20.1 0-3.6 0-7.2 0-10.9 0-5.7 0-11.4-.1-17.1 0-.5.1-.7.7-.7h15.8c.6 0 .7.2.7.7v6.2h.2c1.7-3.2 4.6-5.1 7.9-6.2 4.9-1.7 9.8-1.7 14.6.2 6.4 2.4 9.7 7.5 11.1 13.9.3 1.2.4 2.4.5 3.6 0 .2-.1.4.2.4v1.2c-.3.3-.2.7-.2 1v26.7c0 .8-.2 1-1 1-5 0-10 0-14.9 0-.3 0-.7-.1-1 .2-.1 0-.2 0-.4 0 0-.2.1-.4.1-.6 0-8.1 0-16.2 0-24.3 0-1.5-.1-3-.4-4.5-.6-2.6-1.7-4.8-4.2-6.1-5.7-3-12.6 1.2-12.6 7.7v27c0 .3-.1.6.1.9-.1 0-.2 0-.4 0-.3-.3-.7-.2-1-.2-5.1 0-10.4 0-15.7 0z"/><path d="m63.2 139.6c0-16 0-32 0-47.9 0-.8.2-1 1-1h13.2c.9 0 1.1.2 1.1 1.1v47.1.7c-5.1 0-10.2 0-15.3 0z"/><path d="m122.4 139.6c.3-.3.7-.2 1-.2h14.9c.8 0 1-.2 1-1 0-8.9 0-17.8 0-26.7 0-.3-.1-.7.2-1v28.1c0 .6-.1.7-.7.7-5.5.1-10.9.1-16.4.1z"/><path d="m87.7 139.4h15.9c.3 0 .7-.1 1 .2-5.6 0-11.3 0-16.9 0 0-.1 0-.1 0-.2z"/><path d="m70.3 67.7c4.3 0 7.6 2 8.8 5.4 2.1 5.6-1.6 11.1-7.6 11.5-2.7.2-5.3-.2-7.5-2.1-2.7-2.3-3.4-5.3-2.6-8.6.9-3.4 3.3-5.3 6.6-6 .9-.2 1.7-.3 2.3-.2z"/></g></svg>