<svg enable-background="new 0 0 56 56" height="56" viewBox="0 0 56 56" width="56" xmlns="http://www.w3.org/2000/svg"><path d="m45.5 17.146c-1.288.57-2.672.957-4.124 1.13 1.481-.889 2.621-2.295 3.157-3.973-1.389.823-2.924 1.421-4.561 1.742-1.311-1.396-3.177-2.267-5.242-2.267-3.965 0-7.181 3.215-7.181 7.18 0 .563.063 1.111.187 1.637-5.968-.299-11.259-3.158-14.801-7.503-.618 1.061-.972 2.295-.972 3.61 0 2.491 1.268 4.689 3.194 5.977-1.178-.037-2.284-.36-3.253-.897v.09c0 3.479 2.475 6.382 5.76 7.041-.603.164-1.237.252-1.892.252-.463 0-.913-.045-1.351-.129.913 2.853 3.564 4.929 6.707 4.985-2.457 1.928-5.554 3.074-8.918 3.074-.58 0-1.151-.033-1.713-.101 3.178 2.038 6.952 3.228 11.008 3.228 13.207 0 20.43-10.941 20.43-20.432 0-.312-.006-.621-.021-.929 1.406-1.011 2.623-2.276 3.586-3.715z" fill="#fff"/></svg>